<svg xmlns="http://www.w3.org/2000/svg" xmlns:xlink="http://www.w3.org/1999/xlink" width="40" height="41" version="1.1" viewBox="0 0 40 41"><title>Plus sign</title><desc>Created with Sketch.</desc><g id="Page-1" fill="none" fill-rule="evenodd" stroke="none" stroke-width="1"><g id="INN-Homepage-3" fill="#AAA" transform="translate(-252.000000, -4895.000000)"><g id="Plus-sign" transform="translate(252.000000, 4895.000000)"><path id="Fill-38" d="M19.9513889,40.6545291 C8.99572917,40.6545291 0.0821527778,31.6345663 0.0821527778,20.5496068 C0.0821527778,9.46345977 8.99572917,0.4458719 19.9513889,0.4458719 C30.9070486,0.4458719 39.820625,9.46345977 39.820625,20.5496068 C39.820625,31.6345663 30.9070486,40.6545291 19.9513889,40.6545291 M19.9513889,2.65455157 C10.1986806,2.65455157 2.26506944,10.681796 2.26506944,20.5496068 C2.26506944,30.4174176 10.1986806,38.444662 19.9513889,38.444662 C29.7040972,38.444662 37.6377083,30.4174176 37.6377083,20.5496068 C37.6377083,10.681796 29.7040972,2.65455157 19.9513889,2.65455157"/><path id="Fill-39" d="M9.38888889,19.3621446 L30.5138889,19.3621446 L30.5138889,21.737069 L9.38888889,21.737069 L9.38888889,19.3621446 Z"/><path id="Fill-40" d="M18.7777778,9.86244707 L21.125,9.86244707 L21.125,31.2367665 L18.7777778,31.2367665 L18.7777778,9.86244707 Z"/></g></g></g></svg>